<svg id="Layer_1" data-name="Layer 1" xmlns="http://www.w3.org/2000/svg" viewBox="0 0 900 900"><defs><style>.cls-1{fill:#16223a;}.cls-2{fill:#f1ebde;}.cls-3{fill:#b85a3f;}.cls-4{isolation:isolate;}</style></defs><rect class="cls-1" x="-2.23" y="-6.93" width="904.45" height="913.85"/><path class="cls-2" d="M817.13,539.65H234V373H817.13ZM237.59,536H813.5V376.65H237.59Z"/><path class="cls-2" d="M236.84,376.65V373H70.2V539.65H236.84V536h-163V376.65Z"/><rect class="cls-3" x="800.83" y="360.35" width="28.98" height="28.98"/><g class="cls-4"><path class="cls-2" d="M279.3,437.15a12.59,12.59,0,0,1-6.41-1.46,13,13,0,0,1-4.12-3.7l2.53-2.08a12.31,12.31,0,0,0,3.61,3.16,9.14,9.14,0,0,0,4.51,1,7.13,7.13,0,0,0,4.83-1.45,5.06,5.06,0,0,0,1.66-4.05,4.4,4.4,0,0,0-1.2-3.29,8,8,0,0,0-4.21-1.67l-3.24-.54A12.33,12.33,0,0,1,273.7,422a7.24,7.24,0,0,1-2.31-1.81,6.48,6.48,0,0,1-1.25-2.34,9.26,9.26,0,0,1-.38-2.64,7.21,7.21,0,0,1,2.63-6.05,11.19,11.19,0,0,1,7.07-2,13.35,13.35,0,0,1,5.89,1.18,9.86,9.86,0,0,1,3.85,3.32l-2.46,2.12a9.84,9.84,0,0,0-2.91-2.58,8.62,8.62,0,0,0-4.41-1,7.22,7.22,0,0,0-4.54,1.24,4.46,4.46,0,0,0-1.58,3.72,4.37,4.37,0,0,0,1.19,3.17,7.87,7.87,0,0,0,4.26,1.76l3.13.54a12.61,12.61,0,0,1,3.57,1.12,7.73,7.73,0,0,1,2.36,1.79,6.37,6.37,0,0,1,1.27,2.34,9.62,9.62,0,0,1,.37,2.7,8,8,0,0,1-2.64,6.34Q284.16,437.16,279.3,437.15Z"/><path class="cls-2" d="M313.42,437.15a10.06,10.06,0,0,1-4.14-.81,8.57,8.57,0,0,1-3.06-2.27,9.84,9.84,0,0,1-1.89-3.54,15.49,15.49,0,0,1-.65-4.62,15,15,0,0,1,.67-4.62,10.25,10.25,0,0,1,1.91-3.55,8.41,8.41,0,0,1,3-2.27,9.93,9.93,0,0,1,4.08-.79,8.64,8.64,0,0,1,5.08,1.37,8.12,8.12,0,0,1,2.87,3.58L318.67,421a5,5,0,0,0-1.94-2.58,5.84,5.84,0,0,0-3.35-.91,6.66,6.66,0,0,0-2.6.48,5.46,5.46,0,0,0-1.94,1.35,5.76,5.76,0,0,0-1.18,2.08,8.22,8.22,0,0,0-.4,2.62v3.66a8.24,8.24,0,0,0,.4,2.63,5.84,5.84,0,0,0,1.18,2.08,5.37,5.37,0,0,0,2,1.35,6.93,6.93,0,0,0,2.66.48,6,6,0,0,0,3.58-1,6.91,6.91,0,0,0,2.25-2.75l2.37,1.63a8.63,8.63,0,0,1-3,3.58A9,9,0,0,1,313.42,437.15Z"/><path class="cls-2" d="M337.56,405.85h3.33v12.82h.16a9.09,9.09,0,0,1,.84-1.52,5.64,5.64,0,0,1,1.22-1.27,6.24,6.24,0,0,1,1.73-.87,7.44,7.44,0,0,1,2.33-.33,7.11,7.11,0,0,1,5.41,2.14,8.44,8.44,0,0,1,2,6.05v13.78h-3.33V423.46a6.4,6.4,0,0,0-1.29-4.39,4.82,4.82,0,0,0-3.79-1.44,7.56,7.56,0,0,0-1.95.25,5.77,5.77,0,0,0-1.71.75,3.71,3.71,0,0,0-1.2,1.29,3.55,3.55,0,0,0-.46,1.83v14.9h-3.33Z"/><path class="cls-2" d="M369,436.65V415.18h3.08v2.49h.17a5.88,5.88,0,0,1,1.41-2.12,4.65,4.65,0,0,1,5.5.06,4.23,4.23,0,0,1,1.12,2.44h.13a6.23,6.23,0,0,1,1.66-2.42,4.41,4.41,0,0,1,3-.95c1.74,0,2.92.61,3.51,1.83a12.19,12.19,0,0,1,.9,5.24v14.9h-3.08V422.29a9.06,9.06,0,0,0-.56-3.81,2.14,2.14,0,0,0-2.06-1.06,2.91,2.91,0,0,0-2.17.86,3.61,3.61,0,0,0-.83,2.6v15.77h-3.08V422.29a9.06,9.06,0,0,0-.56-3.81,2.1,2.1,0,0,0-2-1.06,3,3,0,0,0-2.19.86,3.57,3.57,0,0,0-.85,2.6v15.77Z"/><path class="cls-2" d="M404.48,433.78h7.74V418.05h-7.74v-2.87h11.07v18.6h7.24v2.87H404.48Zm9.4-23.35a2.79,2.79,0,0,1-2-.6,2.13,2.13,0,0,1-.58-1.52v-.67a2.15,2.15,0,0,1,.58-1.52,3.77,3.77,0,0,1,4.08,0,2.11,2.11,0,0,1,.59,1.52v.67a2.1,2.1,0,0,1-.59,1.52A2.78,2.78,0,0,1,413.88,410.43Z"/><path class="cls-2" d="M446.89,436.65a4.43,4.43,0,0,1-3.6-1.37,5.28,5.28,0,0,1-1.15-3.53v-13.7H435v-2.87h5.32a1.64,1.64,0,0,0,2-2V407.6h3.2v7.58h9.78v2.87h-9.78v15.73h9.78v2.87Z"/><path class="cls-2" d="M470.19,436.65v-3.24l13.86-15.36h-13.4v-2.87h17v3.24l-13.86,15.36h14.28v2.87Z"/></g><path class="cls-2" d="M299.12,475.57a15.69,15.69,0,0,0-3.68-2c-1.26-.47-2.37-.84-3.34-1.11l-8.43-2.43a29.24,29.24,0,0,1-3.34-1.19,8.43,8.43,0,0,1-2.88-1.95,4.59,4.59,0,0,1-1.17-3.3,5.55,5.55,0,0,1,1.29-3.61,8.67,8.67,0,0,1,3.48-2.5,12.4,12.4,0,0,1,4.9-.88,12.91,12.91,0,0,1,5.2,1.1,10.49,10.49,0,0,1,4,3,9.94,9.94,0,0,1,2,4.65l5.82-1a15.68,15.68,0,0,0-3.12-6.92A15.22,15.22,0,0,0,294,453a19.91,19.91,0,0,0-8-1.59,20.51,20.51,0,0,0-7.92,1.46,12.78,12.78,0,0,0-5.55,4.27,11,11,0,0,0-2.05,6.71,10.61,10.61,0,0,0,.8,4.28,9.25,9.25,0,0,0,2.16,3.09,12.75,12.75,0,0,0,3.07,2.13,21.5,21.5,0,0,0,3.58,1.37l11.3,3.35a17.7,17.7,0,0,1,2.3.9,8.4,8.4,0,0,1,2,1.26,5.48,5.48,0,0,1,1.39,1.82,5.67,5.67,0,0,1,.52,2.52,6.35,6.35,0,0,1-1.43,4.16,9.1,9.1,0,0,1-3.83,2.69,14.62,14.62,0,0,1-5.39.94,13.74,13.74,0,0,1-8-2.36,11,11,0,0,1-4.48-6.54l-5.66.89a15.1,15.1,0,0,0,3.18,7,16.06,16.06,0,0,0,6.22,4.57,21.47,21.47,0,0,0,8.48,1.6,23.64,23.64,0,0,0,6.47-.86,16.07,16.07,0,0,0,5.29-2.56A11.84,11.84,0,0,0,302,490a12.36,12.36,0,0,0,1.28-5.7,10.87,10.87,0,0,0-1.17-5.31A10.19,10.19,0,0,0,299.12,475.57Z"/><polygon class="cls-2" points="321.44 489.56 311.07 463.4 305.31 463.4 318.8 496.54 313.32 511.43 318.64 511.43 336.75 463.4 331.17 463.4 321.44 489.56"/><path class="cls-2" d="M360.68,479.79a33,33,0,0,0-6.94-2.41,60.76,60.76,0,0,1-6-1.76A7.12,7.12,0,0,1,345,474a3,3,0,0,1-.75-2.08,3.84,3.84,0,0,1,2-3.38,9.3,9.3,0,0,1,5.25-1.17,9.8,9.8,0,0,1,5.57,1.65,6.05,6.05,0,0,1,2.59,4.2l5.6-1a9.48,9.48,0,0,0-2.17-5.12,12,12,0,0,0-4.81-3.41,18.09,18.09,0,0,0-6.78-1.2,17.07,17.07,0,0,0-6.69,1.22,10.34,10.34,0,0,0-4.48,3.4,8.41,8.41,0,0,0-1.61,5.11,7.33,7.33,0,0,0,1.08,4.07,8.86,8.86,0,0,0,3.6,2.91,39,39,0,0,0,6.93,2.41q4.06,1.11,6.08,1.88a5.93,5.93,0,0,1,2.67,1.65,3.71,3.71,0,0,1,.64,2.26,4.51,4.51,0,0,1-1.95,3.85,9,9,0,0,1-5.34,1.42,10.8,10.8,0,0,1-6-1.59,7,7,0,0,1-3.11-4.29l-5.6.89a10.85,10.85,0,0,0,4.66,7.28,17,17,0,0,0,9.75,2.6q6.21,0,9.76-2.75a9.06,9.06,0,0,0,3.54-7.56,8.22,8.22,0,0,0-1.08-4.36A8.82,8.82,0,0,0,360.68,479.79Z"/><path class="cls-2" d="M379.35,454.16h-5.48v9.24h-6.74v4.52h6.74v16.17c0,1.7,0,3.23.08,4.57a9.82,9.82,0,0,0,1.06,4,7.11,7.11,0,0,0,3.4,3.34,13.48,13.48,0,0,0,5.15,1.17,24.18,24.18,0,0,0,5.83-.51v-4.71a20.23,20.23,0,0,1-5.83.18,4.49,4.49,0,0,1-3.53-2.31,5.36,5.36,0,0,1-.63-2.49c0-1,0-2.13,0-3.48V467.92h10V463.4h-10Z"/><path class="cls-2" d="M420.58,481.56h2.83a23.84,23.84,0,0,0-1.52-10.19,14.07,14.07,0,0,0-5.3-6.59,15.25,15.25,0,0,0-8.54-2.31,16,16,0,0,0-8.42,2.17A14.73,14.73,0,0,0,394,470.8a20.73,20.73,0,0,0-2,9.44,19.47,19.47,0,0,0,2,9.1,15,15,0,0,0,5.68,6.06,17.44,17.44,0,0,0,17.27-.24,15,15,0,0,0,5.84-6.82l-5.27-1.82a10.2,10.2,0,0,1-3.82,4.34,10.59,10.59,0,0,1-5.72,1.51,9.19,9.19,0,0,1-7.54-3.23,13,13,0,0,1-2.56-7.58h22.63Zm-20.07-10.9c1.76-2.17,4.34-3.26,7.72-3.26q4.74,0,7.15,3a13,13,0,0,1,2.33,6.73H398A12.49,12.49,0,0,1,400.51,470.66Z"/><path class="cls-2" d="M462.05,462.54a12.06,12.06,0,0,0-6,1.47,10.74,10.74,0,0,0-4.09,4h0a9.62,9.62,0,0,0-3.85-4.06,11.47,11.47,0,0,0-5.84-1.43,12.19,12.19,0,0,0-6,1.47,11.24,11.24,0,0,0-3.45,3V463.4h-4.89v33.25h5.51V475.53a8.49,8.49,0,0,1,2-5.87,7.31,7.31,0,0,1,10.47,0,8.58,8.58,0,0,1,2,6l0,21.06h5.45l0-21.12h0a9.07,9.07,0,0,1,1-4.59,6.82,6.82,0,0,1,2.71-2.65,7.59,7.59,0,0,1,3.51-.86,6.74,6.74,0,0,1,5.16,2.11,8.19,8.19,0,0,1,2,5.83l0,21.28h5.48l0-22.48a11.83,11.83,0,0,0-3-8.46A10.68,10.68,0,0,0,462.05,462.54Z"/><path class="cls-2" d="M505.43,469a9.55,9.55,0,0,0-4.66-4.88,17.28,17.28,0,0,0-7.78-1.62,15.11,15.11,0,0,0-9.08,2.5,12.14,12.14,0,0,0-4.65,6.86l5.2,1.57a7.48,7.48,0,0,1,3.19-4.43,10,10,0,0,1,5.28-1.39c3,0,5.17.72,6.4,2.14a9,9,0,0,1,1.75,5.68l-3.66.5c-2,.26-4,.56-5.94.87a52.68,52.68,0,0,0-5.29,1.13,14.52,14.52,0,0,0-4.36,2,8.9,8.9,0,0,0-2.82,3.2,9.86,9.86,0,0,0-1,4.53,9.68,9.68,0,0,0,1.28,4.92,9.37,9.37,0,0,0,3.78,3.62,12.83,12.83,0,0,0,6.24,1.37,15.6,15.6,0,0,0,8.19-2,12.9,12.9,0,0,0,4.12-4.07v5.19h4.87V476.08a35.1,35.1,0,0,0-.19-3.77A10.5,10.5,0,0,0,505.43,469Zm-4.93,16.35a9,9,0,0,1-1.72,3.8,9.64,9.64,0,0,1-3.49,2.8,11.55,11.55,0,0,1-5.13,1.06,8.12,8.12,0,0,1-3.83-.77,5.07,5.07,0,0,1-2.16-2,5.2,5.2,0,0,1-.69-2.58,4.55,4.55,0,0,1,.72-2.61,5.86,5.86,0,0,1,1.91-1.75,12.32,12.32,0,0,1,2.54-1.12,37,37,0,0,1,4.14-.9c1.53-.24,3.16-.48,4.9-.7l3.36-.47c0,.52,0,1.12-.05,1.82A14.81,14.81,0,0,1,500.5,485.32Z"/><path class="cls-2" d="M527.14,463.2a13.62,13.62,0,0,0-3.33.64,11,11,0,0,0-5,3.71,12.57,12.57,0,0,0-.73,1.16V463.4h-4.89v33.25h5.51V480a21.48,21.48,0,0,1,.34-3.86,11.5,11.5,0,0,1,1.21-3.51,8.42,8.42,0,0,1,2.48-2.79,7.91,7.91,0,0,1,3.82-1.48,10.94,10.94,0,0,1,3.79.22V463.4A11.74,11.74,0,0,0,527.14,463.2Z"/><path class="cls-2" d="M542.56,469.26a9.51,9.51,0,0,1,5.63-1.58,9.28,9.28,0,0,1,5.37,1.6,9.07,9.07,0,0,1,3.44,4.49l5.42-1.63a12.42,12.42,0,0,0-5.1-7.08,17.25,17.25,0,0,0-17.59-.35,14.63,14.63,0,0,0-5.45,6.18,21,21,0,0,0-1.94,9.13,21.36,21.36,0,0,0,1.89,9.05,14.59,14.59,0,0,0,5.39,6.24,17.24,17.24,0,0,0,17.41-.2,14.24,14.24,0,0,0,5.39-7.11l-5.54-1.45a9.5,9.5,0,0,1-3.28,4.33,9.28,9.28,0,0,1-5.41,1.49c-3.3,0-5.79-1.14-7.46-3.4a15,15,0,0,1-2.57-9,18.17,18.17,0,0,1,1.1-6.38A9.41,9.41,0,0,1,542.56,469.26Z"/><path class="cls-2" d="M595,470a13.12,13.12,0,0,0-2.37-3.76,11,11,0,0,0-3.79-2.71,13.42,13.42,0,0,0-5.51-1,14.35,14.35,0,0,0-7.43,1.86,12.22,12.22,0,0,0-3.65,3.33V452.31h-4.93v44.34h5.54V479.13a17.07,17.07,0,0,1,.67-5,9.75,9.75,0,0,1,1.86-3.54,7.58,7.58,0,0,1,2.88-2.11,9.38,9.38,0,0,1,3.74-.71,8.69,8.69,0,0,1,4.39,1,7.64,7.64,0,0,1,2.75,2.78,12.68,12.68,0,0,1,1.45,3.94,23,23,0,0,1,.43,4.52v16.66h5.54V478.27a25.77,25.77,0,0,0-.35-4A18.72,18.72,0,0,0,595,470Z"/><rect class="cls-2" x="603.86" y="463.4" width="5.48" height="33.25"/><rect class="cls-2" x="603.86" y="451.85" width="5.48" height="5.66"/><path class="cls-2" d="M625.75,454.16h-5.48v9.24h-6.75v4.52h6.75v16.17c0,1.7,0,3.23.07,4.57a9.68,9.68,0,0,0,1.07,4,7.07,7.07,0,0,0,3.4,3.34,13.43,13.43,0,0,0,5.14,1.17,24.18,24.18,0,0,0,5.83-.51v-4.71a20.23,20.23,0,0,1-5.83.18,4.51,4.51,0,0,1-3.53-2.31,5.36,5.36,0,0,1-.63-2.49c0-1,0-2.13,0-3.48V467.92h10V463.4h-10Z"/><path class="cls-2" d="M667,481.56h2.83a23.84,23.84,0,0,0-1.52-10.19,14.12,14.12,0,0,0-5.29-6.59,15.26,15.26,0,0,0-8.55-2.31,16,16,0,0,0-8.42,2.17,14.79,14.79,0,0,0-5.59,6.16,20.86,20.86,0,0,0-2,9.44,19.47,19.47,0,0,0,2,9.1,15,15,0,0,0,5.68,6.06,17.45,17.45,0,0,0,17.28-.24,14.93,14.93,0,0,0,5.83-6.82L664,486.52a10.33,10.33,0,0,1-3.82,4.34,10.6,10.6,0,0,1-5.73,1.51,9.2,9.2,0,0,1-7.54-3.23,13.09,13.09,0,0,1-2.56-7.58H667Zm-20.07-10.9q2.64-3.26,7.73-3.26,4.74,0,7.14,3a12.92,12.92,0,0,1,2.33,6.73H644.42A12.49,12.49,0,0,1,646.9,470.66Z"/><path class="cls-2" d="M713.86,454.16h-5.48v9.24H694.77l-13.94,16v-27.1h-5.55l0,44.34h5.58v-16l15.11,16h7.67L687.2,480l14.44-16.34v4.24h6.74v16.17c0,1.7,0,3.23.08,4.57a9.66,9.66,0,0,0,1.06,4,7.07,7.07,0,0,0,3.4,3.34,13.43,13.43,0,0,0,5.14,1.17,24.26,24.26,0,0,0,5.84-.51v-4.71a20.3,20.3,0,0,1-5.84.18,4.49,4.49,0,0,1-3.52-2.31,5.36,5.36,0,0,1-.63-2.49c0-1,0-2.13,0-3.48V467.92h10V463.4h-10Z"/><path class="cls-2" d="M752.41,480.92a17.14,17.14,0,0,1-.66,5,9.93,9.93,0,0,1-1.87,3.56A7.69,7.69,0,0,1,747,491.6a9.55,9.55,0,0,1-3.74.71,8.49,8.49,0,0,1-4.35-1,7.59,7.59,0,0,1-2.77-2.77,12.46,12.46,0,0,1-1.47-3.94,23.2,23.2,0,0,1-.43-4.53V463.4H728.7v18.38a25.65,25.65,0,0,0,.35,4,19.34,19.34,0,0,0,1.22,4.22,13.29,13.29,0,0,0,2.37,3.75,10.91,10.91,0,0,0,3.79,2.71,13.42,13.42,0,0,0,5.51,1,14.35,14.35,0,0,0,7.43-1.86,12.26,12.26,0,0,0,3.65-3.34v4.34h4.9V463.4h-5.51Z"/><path class="cls-2" d="M779.16,463.2a13.45,13.45,0,0,0-3.32.64,10.92,10.92,0,0,0-5,3.71,12.48,12.48,0,0,0-.72,1.16V463.4h-4.9v33.25h5.51V480a22.43,22.43,0,0,1,.34-3.86,11.51,11.51,0,0,1,1.22-3.51,8.32,8.32,0,0,1,2.48-2.79,7.92,7.92,0,0,1,3.81-1.48,10.92,10.92,0,0,1,3.79.22V463.4A11.68,11.68,0,0,0,779.16,463.2Z"/><rect class="cls-2" x="100.45" y="487.81" width="76.18" height="17.64"/><rect class="cls-2" x="149.82" y="455.28" width="76.18" height="17.64" transform="translate(-120.05 858.89) rotate(-120)"/><rect class="cls-2" x="96.97" y="428.78" width="76.18" height="17.64" transform="matrix(-0.5, 0.87, -0.87, -0.5, 581.56, 539.44)"/><circle class="cls-3" cx="153.52" cy="466.15" r="10"/></svg>